<svg width="49" height="48" viewBox="0 0 49 48" fill="none" xmlns="http://www.w3.org/2000/svg">
<path fill-rule="evenodd" clip-rule="evenodd" d="M18.9466 17.4172C20.2151 17.4172 21.2323 16.4407 21.2323 15.2229C21.2323 14.0051 20.2151 13.0286 18.9466 13.0286C17.678 13.0286 16.6609 14.0051 16.6609 15.2229C16.6609 16.4407 17.678 17.4172 18.9466 17.4172ZM16.6606 26.7429V34.9715H21.232V26.7429H22.9463V20.7086C22.9463 19.5018 21.9177 18.5143 20.6606 18.5143H17.232C15.9749 18.5143 14.9463 19.5018 14.9463 20.7086V26.7429H16.6606ZM30.9465 28.3886V34.9715H27.5179V28.3886H24.0894L26.9922 20.0174C27.3008 19.1178 28.1808 18.5143 29.1636 18.5143H29.3008C30.2836 18.5143 31.1522 19.1178 31.4722 20.0174L34.3751 28.3886H30.9465ZM31.5179 15.2229C31.5179 16.4407 30.5008 17.4172 29.2322 17.4172C27.9636 17.4172 26.9465 16.4407 26.9465 15.2229C26.9465 14.0051 27.9636 13.0286 29.2322 13.0286C30.5008 13.0286 31.5179 14.0051 31.5179 15.2229Z" fill="black" fill-opacity="0.54"/>
</svg>
