<svg width="49" height="48" viewBox="0 0 49 48" fill="none" xmlns="http://www.w3.org/2000/svg">
<path fill-rule="evenodd" clip-rule="evenodd" d="M31.3771 18.452H23.3979V26.4312H15.4186V16.4572H13.4238V31.4183H15.4186V28.426H33.3719V31.4183H35.3667V22.4416C35.3667 20.2374 33.5813 18.452 31.3771 18.452ZM22.4004 22.4417C22.4004 24.0974 21.0639 25.4339 19.4082 25.4339C17.7525 25.4339 16.416 24.0974 16.416 22.4417C16.416 20.786 17.7525 19.4495 19.4082 19.4495C21.0639 19.4495 22.4004 20.786 22.4004 22.4417ZM20.4055 22.4417C20.4055 21.8931 19.9566 21.4443 19.408 21.4443C18.8595 21.4443 18.4106 21.8931 18.4106 22.4417C18.4106 22.9902 18.8595 23.4391 19.408 23.4391C19.9566 23.4391 20.4055 22.9902 20.4055 22.4417ZM25.3928 26.4312H33.372V22.4416C33.372 21.3445 32.4744 20.4468 31.3772 20.4468H25.3928V26.4312Z" fill="#757575"/>
</svg>
