<svg width="48" height="48" viewBox="0 0 48 48" fill="none" xmlns="http://www.w3.org/2000/svg">
<path d="M34.6084 15.9853L24.0047 12.02C23.9343 11.9933 23.8567 11.9933 23.7864 12.02L21.6157 12.8318C21.4544 12.8924 21.3725 13.0715 21.433 13.2328C21.4936 13.3941 21.6727 13.4761 21.834 13.4155L23.6277 12.7445V23.7608L13.6032 28.1163V26.0062C13.6032 25.8343 13.4633 25.6944 13.2914 25.6944C13.1194 25.6944 12.9795 25.8343 12.9795 26.0062V31.3366C12.9795 31.4667 13.0606 31.5834 13.1818 31.6289L23.7855 35.5941C23.8211 35.6075 23.8576 35.6137 23.8951 35.6137C23.9325 35.6137 23.969 35.6075 24.0047 35.5941L34.6084 31.6289C34.7304 31.5834 34.8106 31.4667 34.8106 31.3366V16.2776C34.8106 16.1475 34.7295 16.0307 34.6084 15.9853ZM34.1869 28.1163L31.8701 27.1103V20.5101C31.8701 20.3818 31.7917 20.2669 31.6723 20.2196L26.6823 18.2593C26.5861 18.2219 26.4783 18.2335 26.3927 18.2923C26.3072 18.3502 26.2564 18.4464 26.2564 18.5498V24.6714L24.2515 23.8008V12.7783L34.1869 16.4941V28.1163ZM31.2464 26.8385L26.8801 24.9414V19.0069L31.2464 20.7222V26.8385ZM23.8737 24.3346C23.8924 24.3382 23.9111 24.3399 23.9307 24.3408L33.6487 28.5627L23.8951 32.0218L14.1414 28.5627L23.8737 24.3346ZM23.8951 34.9686L13.6032 31.1201V29.0332L23.7908 32.6465C23.8247 32.6581 23.8594 32.6643 23.8951 32.6643C23.9307 32.6643 23.9655 32.6581 23.9993 32.6465L34.1869 29.0332V31.1201L23.8951 34.9686Z" fill="white"/>
</svg>
